<svg xmlns="http://www.w3.org/2000/svg" viewBox="0 0 830.64 171.58"><title>logo</title><text transform="translate(146.58 132.28)" style="font-size:150px;fill:#8a8c8e;font-family:Montserrat">t<tspan x="60.9" y="0" style="letter-spacing:-1px">r</tspan><tspan x="119.85" y="0">ia</tspan><tspan x="248.7" y="0">n</tspan><tspan x="350.54" y="0">ese</tspan></text><path d="M556,595.73q-16.67-6.54-26.78-15l21-33.71a102.18,102.18,0,0,0,22,13.08,92.45,92.45,0,0,0,24.37,7.22q10.25,1.46,14.93.11t5.24-5.33q0.66-4.6-4.77-7.73t-18.21-7.73a216.51,216.51,0,0,1-27.15-11.67,48.59,48.59,0,0,1-17.75-16.2q-7-10.5-4.77-26.4a43.86,43.86,0,0,1,11.33-24q9.35-10.19,25.66-14.48t38.27-1.15a137,137,0,0,1,29.14,7.47,93.77,93.77,0,0,1,24.27,13.18l-20,33.65q-20-14-39.24-16.71-19-2.72-20.35,6.48-0.63,4.39,4.71,7.4t17.95,7.37a193.49,193.49,0,0,1,27.21,11.25,49.66,49.66,0,0,1,18.08,16.14q7.16,10.42,4.88,26.31a43.39,43.39,0,0,1-11.31,23.89q-9.34,10.09-25.66,14.48t-38.28,1.25A155.18,155.18,0,0,1,556,595.73Z" transform="translate(-529.19 -451.38)" style="fill:#1371e2"/><text transform="translate(765.93 134.23)" style="font-size:51.402618408203125px;fill:#0060af;font-family:Montserrat;font-weight:700">s<tspan x="27.29" y="0">r</tspan><tspan x="49.24" y="0">l</tspan></text></svg>