<svg xmlns="http://www.w3.org/2000/svg" viewBox="0 0 367.15 147.95"><title>CarrierR</title><path d="M340.87,141.6c1.44,0,2.74-.1,2.74-1.83,0-1.4-1.26-1.65-2.45-1.65h-2.32v3.48m0,6.31h-1.71V136.68h4.28c2.66,0,4,1,4,3.2a2.92,2.92,0,0,1-2.91,3.09l3.2,4.95h-1.9l-3-4.87h-2v4.87Zm2.06,2.5a8.12,8.12,0,1,0-7.94-8.15A7.87,7.87,0,0,0,340.9,150.42Zm-9.9-8.15a9.87,9.87,0,1,1,9.9,9.77A9.73,9.73,0,0,1,331,142.27Z" transform="translate(-5.49 -5.02)"/><path d="M189.06,153c101.38,0,183.58-33.12,183.58-74S290.44,5,189.06,5,5.49,38.14,5.49,79s82.19,74,183.57,74" transform="translate(-5.49 -5.02)" style="fill:#17479e"/><path d="M189.06,144.54c98.21,0,177.82-29.35,177.82-65.55S287.26,13.46,189.06,13.46,11.23,42.8,11.23,79s79.62,65.55,177.82,65.55" transform="translate(-5.49 -5.02)" style="fill:#fff"/><path d="M189.06,140.19c96.84,0,175.35-27.39,175.35-61.19S285.9,17.81,189.06,17.81,13.7,45.21,13.7,79s78.51,61.19,175.35,61.19" transform="translate(-5.49 -5.02)" style="fill:#17479e"/><path d="M141.7,63.19h7.75l-9.36,28.25s-1.62,6,2.58,2.1c3.71-3.42,4.68-5.49,4.68-5.49h2.26s-5.33,9-9.52,11.3-9.78,1.93-9.85-3.23c0-3.15.81-3.87,0.81-3.87s-8.56,9.69-14,8.88c-5.87-.86-8.24-5.16-7.11-14.69,1-8.06,10.33-20.83,22.6-23.09,0,0,5.49-1.13,8.23,2.59" transform="translate(-5.49 -5.02)" style="fill:#fff"/><path d="M138,73.2s-2.91,9.36-7.11,14.69c-2.34,3-14.21,13.56-11.78-1.29l1.13-4.52s3.38-10,12.27-15.5c4.2-2.58,7.75.32,5.49,6.62" transform="translate(-5.49 -5.02)" style="fill:#17479e"/><path d="M98.1,97.09c-8.47,5.54-19.21,3.55-19.21,3.55-19.05-4.2-19.38-25.19-6.46-39.39,14.87-16.36,35.71-14.67,40.69-12.92,5.49,1.94,5.65,7.91,1.94,10.33-3.39,2.21-10-.69-6.78-7.1,0,0.08-3.25-1.64-10-.32C81.82,54.44,73.73,71.58,73.4,81.92,72.89,98.39,84.75,97.17,89.22,96.45c6.94-1.13,9-2.58,13.3-5.88H105a16.82,16.82,0,0,1-5.81,5.88" transform="translate(-5.49 -5.02)" style="fill:#fff"/><path d="M164.3,99.84H157s5.9-19.53,8.07-26.48c1.7-5.41-.64-5.09-3.79-1.86l-3.23,4.12H155.9S163.67,63.48,169.79,63c0,0,5.25-.4,3.39,6.62l-2,8.39,6.54-9.69c2.83-4.28,6.3-5.73,10.34-4.52a6,6,0,0,1,.65,8.23c-2.89,4.07-7.67,1.86-7.1-3.15,0,0-5,.32-13.4,20.91" transform="translate(-5.49 -5.02)" style="fill:#fff"/><path d="M200.3,100H193s5.89-19.52,8.07-26.48c1.69-5.41-.65-5.09-3.8-1.86l-3.23,4.12h-2.18s7.76-12.14,13.88-12.59c0,0,5.25-.4,3.39,6.62l-2,8.39,6.54-9.69C216.53,64.24,220,62.78,224,64a6,6,0,0,1,.64,8.24c-2.9,4.07-7.67,1.85-7.1-3.15,0,0-5,.32-13.4,20.91" transform="translate(-5.49 -5.02)" style="fill:#fff"/><path d="M234.37,63.91H242s-9,26.88-9.2,27.69-1.77,7.1,2.59,3.31,2-1.45,5.41-5.24H243s-6.2,10.4-13.56,11.95c-6.54,1.37-6.22-4.36-6.22-4.36s0.08-1.86,2-8.15" transform="translate(-5.49 -5.02)" style="fill:#fff"/><path d="M238.06,59.83c2.36,1,5.35-.72,6.68-3.84s0.49-6.47-1.87-7.47-5.35.72-6.68,3.85-0.49,6.47,1.87,7.47" transform="translate(-5.49 -5.02)" style="fill:#fff"/><path d="M295.24,100.48H288S293.86,81,296,74c1.69-5.41-.65-5.09-3.8-1.86L289,76.26h-2.18s7.77-12.14,13.89-12.59c0,0,5.25-.41,3.39,6.62l-2,8.4L308.64,69c2.82-4.28,6.3-5.73,10.33-4.52a6,6,0,0,1,.65,8.23c-2.9,4.07-7.67,1.85-7.1-3.15,0,0-5,.32-13.4,20.91" transform="translate(-5.49 -5.02)" style="fill:#fff"/><path d="M249.22,80.14S256.16,60.6,275.86,63c0,0,13.24,4.68,4,15.34,0,0-4.35,6.62-22.28,7.27,0,0-4.68,15.18,12.27,10,0,0,6.14-3.55,6.94-5.33h2.1s-3.88,9.85-16.63,12.11c0,0-19.53,2.1-13.08-22.28" transform="translate(-5.49 -5.02)" style="fill:#fff"/><path d="M258.43,82.4s1.94-14.53,12.27-16.47c0,0,6.46-.65,4,7.59,0,0-3.87,7.59-11.95,8.72" transform="translate(-5.49 -5.02)" style="fill:#17479e"/></svg>