<svg xmlns="http://www.w3.org/2000/svg" xmlns:xlink="http://www.w3.org/1999/xlink" viewBox="0 0 532.47 624.48"><defs><clipPath id="a" transform="translate(-687.11 -321.1)"><circle cx="982.59" cy="523.59" r="202.49" style="fill:none"/></clipPath><linearGradient id="b" x1="295.49" x2="295.49" y2="404.98" gradientUnits="userSpaceOnUse"><stop offset="0" stop-color="#970089" stop-opacity="0.7"/><stop offset="0.03" stop-color="#8c008a" stop-opacity="0.64"/><stop offset="0.12" stop-color="#6b008f" stop-opacity="0.44"/><stop offset="0.22" stop-color="#4f0092" stop-opacity="0.28"/><stop offset="0.34" stop-color="#3a0095" stop-opacity="0.15"/><stop offset="0.48" stop-color="#2b0097" stop-opacity="0.07"/><stop offset="0.65" stop-color="#230098" stop-opacity="0.01"/><stop offset="1" stop-color="#200098" stop-opacity="0"/></linearGradient><linearGradient id="c" x1="295.49" x2="295.49" y2="404.98" gradientUnits="userSpaceOnUse"><stop offset="0" stop-color="#0030e7" stop-opacity="0.7"/><stop offset="0.06" stop-color="#0627d8" stop-opacity="0.57"/><stop offset="0.13" stop-color="#0d1dc7" stop-opacity="0.42"/><stop offset="0.22" stop-color="#1314b8" stop-opacity="0.29"/><stop offset="0.31" stop-color="#180cad" stop-opacity="0.18"/><stop offset="0.41" stop-color="#1b07a3" stop-opacity="0.1"/><stop offset="0.53" stop-color="#1e039d" stop-opacity="0.04"/><stop offset="0.69" stop-color="#200199" stop-opacity="0.01"/><stop offset="1" stop-color="#200098" stop-opacity="0"/></linearGradient><linearGradient id="d" x1="899.58" y1="506.9" x2="899.58" y2="915" gradientUnits="userSpaceOnUse"><stop offset="0" stop-color="#0042d0"/><stop offset="0.02" stop-color="#0040c9"/><stop offset="0.21" stop-color="#002e94"/><stop offset="0.39" stop-color="#001f67"/><stop offset="0.56" stop-color="#001444"/><stop offset="0.73" stop-color="#000c2b"/><stop offset="0.88" stop-color="#00071c"/><stop offset="1" stop-color="#000517"/></linearGradient><linearGradient id="e" x1="1012.19" y1="866.18" x2="878.63" y2="499.22" gradientUnits="userSpaceOnUse"><stop offset="0" stop-color="#0029a2"/><stop offset="0.18" stop-color="#00289e"/><stop offset="0.37" stop-color="#002591"/><stop offset="0.56" stop-color="#001f7c"/><stop offset="0.75" stop-color="#00185e"/><stop offset="0.95" stop-color="#000f39"/><stop offset="1" stop-color="#000c2e"/></linearGradient><linearGradient id="f" x1="924.52" y1="929.85" x2="993.68" y2="537.63" gradientUnits="userSpaceOnUse"><stop offset="0" stop-color="#008fb9"/><stop offset="0.12" stop-color="#048db7"/><stop offset="0.24" stop-color="#1185b1"/><stop offset="0.37" stop-color="#267aa8"/><stop offset="0.5" stop-color="#44699a"/><stop offset="0.63" stop-color="#6a5489"/><stop offset="0.76" stop-color="#993974"/><stop offset="0.9" stop-color="#cf1b5c"/><stop offset="1" stop-color="#ff0046"/></linearGradient><linearGradient id="g" x1="816.19" y1="1020.1" x2="1074.17" y2="573.27" gradientUnits="userSpaceOnUse"><stop offset="0" stop-color="#0100b9"/><stop offset="0.09" stop-color="#0700b4"/><stop offset="0.22" stop-color="#1a01a7"/><stop offset="0.37" stop-color="#370292"/><stop offset="0.53" stop-color="#610473"/><stop offset="0.71" stop-color="#96064d"/><stop offset="0.89" stop-color="#d5081e"/><stop offset="1" stop-color="#ff0a00"/></linearGradient><linearGradient id="h" x1="1071.34" y1="321.1" x2="1071.34" y2="726.08" gradientUnits="userSpaceOnUse"><stop offset="0" stop-color="#fff" stop-opacity="0.05"/><stop offset="0.1" stop-color="#fff" stop-opacity="0.07"/><stop offset="0.23" stop-color="#fff" stop-opacity="0.14"/><stop offset="0.37" stop-color="#fff" stop-opacity="0.25"/><stop offset="0.53" stop-color="#fff" stop-opacity="0.39"/><stop offset="0.7" stop-color="#fff" stop-opacity="0.59"/><stop offset="0.87" stop-color="#fff" stop-opacity="0.82"/><stop offset="1" stop-color="#fff"/></linearGradient><symbol id="i" viewBox="0 0 78 67.81"><path d="M78,33.91c0,1.33-8.37-2.12-14.69-2.49-3.77-.22-8.38,6.27-12.14,6-5.83-.36-13.36-5.58-13.94-4.59S45,38.1,48.34,43.16c2.07,3.16-1.31,10.35.72,13.48,3.34,5.15,10.38,10.52,9.28,11.15s-2.17-8.4-5-14.08c-1.67-3.39-9.59-4.15-11.27-7.51C39.49,41,40.22,31.85,39,31.85S38.4,41.1,35.72,46.41c-1.69,3.36-9.6,4.05-11.28,7.39-2.79,5.58-3.91,14.48-5,13.86S25.55,61.53,29,56.26c2.08-3.15-1.25-10.37.82-13.51,3.22-4.88,11.52-8.82,10.92-9.87s-8.36,4.22-14.4,4.6c-3.76.24-8.32-6.26-12-6.05C8.18,31.77,0,35.2,0,33.91S8.37,36,14.69,36.4c3.78,0.22,8.38-6.27,12.14-6,5.83,0.36,13.36,5.58,13.94,4.58S33,29.72,29.67,24.65C27.6,21.49,31,14.3,29,11.18,25.61,6,18.57.66,19.67,0s2.17,8.4,5,14.08c1.67,3.39,9.59,4.15,11.27,7.51C38.51,26.84,37.78,36,39,36s0.61-9.25,3.28-14.56C44,18,51.88,17.35,53.56,14c2.79-5.58,3.91-14.48,5-13.86S52.46,6.29,49,11.56c-2.08,3.15,1.25,10.37-.82,13.51C44.93,30,36.63,33.89,37.23,34.94s8.36-4.22,14.4-4.6c3.76-.23,8.33,6.27,12,6.05C69.83,36,78,32.61,78,33.91Z" style="fill:#23a3dd"/><path d="M73.21,33.91c0,1-8.13-2.78-14.35-3.48-3.67-.41-8.51,5.86-12.16,5.45-5.82-.67-13.14-6.19-13.59-5.44S41.18,35.13,44.72,40c2.14,3-1,10.22,1.11,13.17,3.57,5,10.75,10.07,9.93,10.53s-1.45-8.52-3.91-14.29c-1.44-3.4-9.29-4.51-10.74-7.89C38.8,36.16,39.91,27.06,39,27.06s0,9.22-2.4,14.66c-1.52,3.4-9.39,4.42-10.89,7.79-2.48,5.59-3.24,14.36-4,13.89S28.25,57.83,32,52.81c2.21-3-.76-10.3,1.44-13.25,3.5-4.68,12-8.23,11.51-9s-8,4.74-14,5.41c-3.7.42-8.54-5.88-12.2-5.49-6,.65-13.93,4.38-13.93,3.44s8.13,2.78,14.36,3.48c3.67,0.42,8.51-5.86,12.16-5.44,5.81,0.66,13.14,6.19,13.58,5.44s-8.07-4.69-11.61-9.61c-2.14-3,1-10.22-1.11-13.17-3.57-5-10.75-10.07-9.93-10.53s1.45,8.52,3.9,14.29c1.45,3.4,9.3,4.51,10.74,7.89C39.2,31.65,38.1,40.75,39,40.75s0-9.22,2.4-14.66c1.52-3.4,9.39-4.42,10.89-7.79,2.48-5.59,3.24-14.36,4-13.9S49.76,10,46,15c-2.21,3,.76,10.3-1.44,13.25-3.5,4.68-12,8.23-11.51,9s8-4.74,14-5.41c3.63-.4,8.38,5.9,12,5.51C65.2,36.71,73.21,33,73.21,33.91Z" style="fill:#80d3f1"/><path d="M68.42,33.91c0,0.64-7.85-3.44-13.95-4.45-3.55-.59-8.59,5.47-12.13,4.88-5.88-1-13.1-6.78-13.39-6.28s8.36,4,12.16,8.69c2.26,2.79-.52,10.17,1.73,12.95,3.85,4.75,11.23,9.49,10.69,9.8s-0.83-8.56-3-14.36c-1.25-3.37-9-4.74-10.26-8.1-2.08-5.6-.68-14.75-1.29-14.75s0.71,9.24-1.42,14.88c-1.27,3.37-9,4.68-10.31,8-2.16,5.72-2.52,14.47-3,14.18s6.94-5,10.88-9.82C37.41,46.77,34.7,39.37,37,36.6c3.79-4.59,12.42-7.93,12.12-8.45s-7.6,5.28-13.55,6.26c-3.61.59-8.72-5.47-12.31-4.89-6,1-13.67,5-13.67,4.38s7.85,3.44,14,4.45c3.55,0.59,8.6-5.47,12.14-4.88,5.88,1,13.1,6.78,13.39,6.28s-8.36-4-12.16-8.69c-2.26-2.79.52-10.16-1.74-12.94-3.85-4.75-11.23-9.5-10.69-9.8s0.83,8.56,3,14.36c1.25,3.37,9,4.74,10.26,8.1,2.08,5.6.68,14.76,1.29,14.76s-0.71-9.24,1.42-14.88c1.27-3.36,9-4.68,10.31-8,2.16-5.72,2.52-14.47,3-14.18s-6.94,5-10.88,9.82C40.59,21,43.3,28.45,41,31.21c-3.79,4.59-12.42,7.92-12.13,8.45s7.61-5.28,13.56-6.26c3.62-.59,8.72,5.47,12.31,4.89C60.73,37.32,68.42,33.29,68.42,33.91Z" style="fill:#fff"/><path d="M66,33.91c0,0.47-7.67-3.75-13.68-4.93C48.8,28.29,43.56,34.2,40,33.51c-5.83-1.14-12.88-7.1-13.1-6.73s8.48,3.84,12.35,8.52c2.3,2.78-.4,10.2,1.88,13,3.82,4.62,11.1,9.22,10.7,9.44S51.47,49,49.54,43.06c-1.13-3.46-8.85-5.16-10-8.58-1.83-5.6-.14-14.59-0.56-14.59s1,9.24-1,15c-1.2,3.4-9,4.89-10.14,8.26-2,5.68-2.2,14.32-2.58,14.1S32.42,52.52,36.5,48c2.4-2.69,0-10.22,2.39-12.9,3.94-4.42,12.66-7.42,12.45-7.82s-7.48,5.47-13.44,6.55c-3.53.65-8.67-5.35-12.19-4.71C19.68,30.17,12,34.34,12,33.91s7.68,3.76,13.69,4.93c3.55,0.69,8.79-5.22,12.33-4.53,5.82,1.14,12.87,7.1,13.09,6.73s-8.48-3.85-12.35-8.52c-2.3-2.78.4-10.19-1.88-12.95-3.83-4.62-11.1-9.22-10.7-9.44s0.38,8.7,2.31,14.63c1.13,3.46,8.85,5.16,10,8.58,1.83,5.6.14,14.59,0.56,14.59s-1-9.24,1-15c1.2-3.4,9-4.89,10.15-8.26,2-5.68,2.2-14.32,2.58-14.1s-7.14,4.67-11.22,9.24c-2.4,2.69,0,10.22-2.39,12.9-3.95,4.42-12.66,7.42-12.45,7.82S34.16,35.11,40.12,34c3.54-.65,8.68,5.35,12.2,4.71C58.33,37.64,66,33.47,66,33.91Z" style="fill:#eaf6f7"/><path d="M52.51,33.91c0,0.23-3.83-1.88-6.84-2.46-1.77-.35-4.39,2.61-6.16,2.27-2.91-.57-6.44-3.55-6.55-3.37s4.24,1.92,6.18,4.26c1.15,1.39-.2,5.1.94,6.47,1.91,2.31,5.55,4.61,5.34,4.72s-0.19-4.35-1.15-7.32c-0.56-1.73-4.43-2.58-5-4.29-0.92-2.8-.07-7.3-0.28-7.3s0.51,4.62-.5,7.48c-0.6,1.7-4.48,2.44-5.07,4.13-1,2.84-1.1,7.16-1.29,7.05s3.57-2.34,5.61-4.62c1.2-1.35,0-5.11,1.19-6.45,2-2.21,6.33-3.71,6.22-3.91s-3.74,2.73-6.72,3.28c-1.77.32-4.33-2.68-6.09-2.36-3,.55-6.86,2.63-6.86,2.41s3.84,1.88,6.85,2.46c1.77,0.35,4.39-2.61,6.16-2.26,2.91,0.57,6.44,3.55,6.54,3.36s-4.24-1.92-6.17-4.26c-1.15-1.39.2-5.1-.94-6.47C36,24.43,32.38,22.13,32.58,22s0.19,4.35,1.16,7.31c0.56,1.73,4.43,2.58,5,4.29,0.92,2.8.07,7.3,0.28,7.3s-0.51-4.62.5-7.48c0.6-1.7,4.48-2.44,5.07-4.13,1-2.84,1.1-7.16,1.29-7.05s-3.57,2.34-5.61,4.62c-1.2,1.35,0,5.11-1.19,6.45-2,2.21-6.33,3.71-6.22,3.91s3.74-2.73,6.73-3.28c1.77-.32,4.34,2.67,6.1,2.35C48.67,35.77,52.51,33.69,52.51,33.91Z" style="fill:#80d3f1"/><path d="M56.95,51.85c-0.61.61-2.87-4.83-5.61-7.91-1.63-1.84-6.74-1-8.36-2.8-2.52-2.85-3.58-8.72-4.3-8.52s1.18,6,.37,9.84c-0.5,2.41-5.37,4.16-5.87,6.53-0.83,3.91-.06,9.62-0.86,9.4s2.86-4.86,4.19-8.77C37.29,47.29,34,43.3,34.77,41c1.2-3.59,5.74-7.45,5.18-8s-4.54,4-8.21,5.19c-2.32.77-6.28-2.56-8.59-1.79-3.85,1.28-8.46,4.86-8.66,4.09s5.62,0,9.65-.85c2.4-.49,4.19-5.34,6.59-5.84,3.73-.77,9.36,1.24,9.57.48s-5.79-1.9-8.74-4.51c-1.84-1.62-.95-6.71-2.76-8.33-3-2.67-8.33-4.86-7.74-5.45s2.87,4.83,5.61,7.91c1.64,1.84,6.74,1,8.37,2.8,2.52,2.85,3.58,8.72,4.3,8.52s-1.18-6-.37-9.84c0.5-2.41,5.37-4.16,5.87-6.53,0.83-3.91.06-9.62,0.86-9.4s-2.87,4.86-4.19,8.77c-0.79,2.33,2.5,6.32,1.73,8.64-1.2,3.59-5.74,7.45-5.17,8s4.53-4,8.21-5.19c2.32-.77,6.28,2.55,8.59,1.79,3.85-1.28,8.46-4.86,8.66-4.09s-5.62,0-9.65.85c-2.4.49-4.19,5.35-6.59,5.84-3.73.77-9.36-1.24-9.57-.48s5.79,1.91,8.74,4.51c1.84,1.63.95,6.72,2.76,8.33C52.2,49.07,57.54,51.26,56.95,51.85Z" style="fill:#23a3dd"/><path d="M54.74,49.65c-0.46.46-2.46-5-5-8.21-1.5-1.88-6.61-1.22-8.1-3.09-2.37-3-3.2-8.89-3.75-8.75s1.55,5.87.92,9.76c-0.38,2.35-5.16,4.24-5.55,6.57-0.64,3.93.31,9.58-.28,9.41s3.25-4.59,4.78-8.37c0.9-2.23-2.2-6.35-1.31-8.57,1.42-3.54,6.11-7.22,5.7-7.64S37.92,35,34.3,36.4C32,37.26,28,34.11,25.71,35c-3.71,1.43-8.1,5.12-8.25,4.54S23,40,27.09,39.38C29.47,39,31.48,34.3,33.85,34c3.77-.54,9.28,1.71,9.44,1.15s-5.87-1.51-8.95-4c-1.9-1.51-1.22-6.63-3.09-8.14-3.07-2.47-8.42-4.4-8-4.83s2.46,5,5,8.21c1.5,1.88,6.61,1.22,8.1,3.09,2.37,3,3.2,8.89,3.75,8.75s-1.55-5.87-.92-9.76c0.38-2.35,5.16-4.24,5.54-6.57,0.65-3.93-.31-9.58.28-9.41s-3.25,4.59-4.78,8.37c-0.9,2.23,2.2,6.35,1.31,8.57-1.41,3.54-6.11,7.22-5.69,7.64s4.23-4.25,7.85-5.64c2.26-.87,6.35,2.29,8.6,1.42,3.71-1.43,8.1-5.12,8.25-4.54s-5.59-.46-9.63.13c-2.38.34-4.39,5.09-6.76,5.43-3.77.54-9.29-1.71-9.44-1.15s5.87,1.51,8.95,4c1.86,1.48,1.14,6.57,3,8C49.76,47.25,55.18,49.21,54.74,49.65Z" style="fill:#80d3f1"/><path d="M52.54,47.44c-0.29.3-2-5.19-4.37-8.46-1.36-1.9-6.47-1.44-7.83-3.34-2.26-3.16-2.91-9.15-3.27-9.05s2,5.69,1.6,9.59c-0.24,2.33-4.92,4.44-5.16,6.75-0.42,4,.8,9.53.41,9.42s3.56-4.32,5.24-8c1-2.12-2-6.33-1-8.45,1.62-3.53,6.47-7.1,6.2-7.38s-3.92,4.58-7.5,6.19c-2.13,1-6.32-2-8.44-1.05-3.62,1.64-7.82,5.5-7.92,5.13S26,39.7,30,39.31c2.33-.22,4.49-4.87,6.81-5.09,3.86-.37,9.36,2.07,9.46,1.69s-5.93-1.07-9.11-3.36c-1.94-1.39-1.5-6.53-3.42-7.91-3.19-2.3-8.59-4-8.3-4.27s2,5.19,4.37,8.46c1.36,1.9,6.47,1.44,7.83,3.34,2.26,3.16,2.91,9.15,3.27,9s-2-5.69-1.59-9.59c0.24-2.33,4.92-4.44,5.16-6.75,0.42-4-.8-9.53-0.41-9.42s-3.56,4.32-5.24,8c-1,2.12,2,6.33,1,8.45-1.62,3.54-6.47,7.11-6.2,7.38s3.92-4.58,7.5-6.19c2.13-1,6.31,2,8.43,1,3.62-1.64,7.82-5.5,7.92-5.13S52,28.12,48,28.5c-2.33.22-4.49,4.88-6.81,5.1-3.86.37-9.36-2.07-9.47-1.69s5.93,1.07,9.12,3.36c1.94,1.39,1.5,6.53,3.42,7.91C47.42,45.47,52.82,47.16,52.54,47.44Z" style="fill:#bde6f1"/><path d="M51.44,46.34c-0.22.22-1.8-5.25-4-8.56-1.31-2-6.45-1.64-7.76-3.59C37.5,31,37,25,36.73,25.07s2.13,5.67,1.76,9.6c-0.22,2.34-4.87,4.51-5.09,6.82-0.37,3.88.86,9.35,0.58,9.26S37.8,46.58,39.64,43c1.07-2.11-1.7-6.45-.64-8.54,1.73-3.42,6.65-6.78,6.46-7s-3.78,4.72-7.34,6.42C36,34.88,31.75,32,29.65,33,26.11,34.7,22,38.58,22,38.31s5.44,1.14,9.41.91c2.34-.13,4.69-4.71,7-4.84,3.85-.22,9.24,2.41,9.32,2.13s-6-.93-9.2-3.17C36.63,32,37,26.89,35.1,25.57c-3.27-2.27-8.74-3.89-8.54-4.09s1.8,5.26,4,8.57C31.91,32,37,31.68,38.35,33.63c2.15,3.21,2.66,9.19,2.92,9.12s-2.13-5.67-1.76-9.6c0.22-2.34,4.88-4.5,5.09-6.82C45,22.44,43.75,17,44,17.06s-3.83,4.18-5.67,7.79c-1.07,2.11,1.7,6.45.64,8.54-1.73,3.42-6.65,6.78-6.45,7s3.78-4.72,7.34-6.42c2.12-1,6.37,1.87,8.47.87,3.54-1.69,7.6-5.57,7.67-5.3s-5.44-1.14-9.41-.91c-2.34.13-4.7,4.71-7,4.84-3.85.22-9.24-2.41-9.32-2.13s6,0.93,9.21,3.18c1.93,1.33,1.53,6.45,3.45,7.78C46.18,44.52,51.63,46.14,51.44,46.34Z" style="fill:#eaf6f7"/><path d="M45.22,40.12c-0.11.11-.9-2.63-2-4.28C42.55,34.87,40,35,39.33,34c-1.08-1.6-1.33-4.59-1.46-4.56s1.07,2.83.88,4.8c-0.11,1.17-2.44,2.25-2.55,3.41-0.18,1.94.43,4.67,0.29,4.63a35.58,35.58,0,0,0,2.83-3.9c0.54-1.05-.85-3.22-0.32-4.27,0.87-1.71,3.33-3.39,3.23-3.49S40.34,33,38.56,33.89c-1.06.51-3.18-.93-4.23-0.43a37,37,0,0,0-3.84,2.65,41.09,41.09,0,0,0,4.71.46c1.17-.07,2.35-2.36,3.52-2.42,1.92-.11,4.62,1.21,4.66,1.07s-3-.46-4.6-1.58c-1-.67-0.76-3.22-1.72-3.89a36.18,36.18,0,0,0-4.27-2c0.11-.11.9,2.63,2,4.28,0.66,1,3.22.82,3.88,1.79,1.08,1.6,1.33,4.59,1.46,4.56s-1.07-2.84-.88-4.8c0.11-1.17,2.44-2.25,2.55-3.41a39,39,0,0,0-.29-4.63,36.7,36.7,0,0,0-2.83,3.9c-0.53,1.06.85,3.22,0.32,4.27-0.87,1.71-3.32,3.39-3.23,3.49s1.89-2.36,3.67-3.21c1.06-.51,3.18.94,4.23,0.43a37.27,37.27,0,0,0,3.84-2.65c0,0.15-2.72-.57-4.71-0.46-1.17.07-2.35,2.36-3.52,2.42-1.92.11-4.62-1.21-4.66-1.07s3,0.47,4.6,1.59c1,0.66.77,3.22,1.72,3.89A36.8,36.8,0,0,0,45.22,40.12Z" style="fill:#fff"/></symbol></defs><title>prova</title><g style="clip-path:url(#a)"><circle cx="295.49" cy="202.49" r="202.49" style="fill:url(#b)"/><circle cx="295.49" cy="202.49" r="202.49" style="fill:url(#c)"/><path d="M748.8,523.56s61.4-37.48,107.9,0,104.95,51,164.94,42S1029,915,1029,915H749Z" transform="translate(-687.11 -321.1)" style="fill:url(#d)"/><path d="M733.61,552s52.5,111.08,172.49,49.59,64.5-37.5,133.49-78,162-6.18,171,28.41l-52.5,261.08-471,19.5Z" transform="translate(-687.11 -321.1)" style="fill:url(#e)"/><path d="M742.61,609s52.5,111.08,172.49,49.59,64.5-37.5,133.49-78,162-6.18,171,28.41l-52.5,261.08-471,19.5Z" transform="translate(-687.11 -321.1)" style="fill:url(#f)"/><path d="M733.61,665s52.5,111.08,172.49,49.59,64.5-37.5,133.49-78,162-6.18,171,28.41l-52.5,261.08-471,19.5Z" transform="translate(-687.11 -321.1)" style="fill:url(#g)"/></g><path d="M1185.08,523.59c0,111.83-90.66,202.49-202.49,202.49a204.27,204.27,0,0,1-25-1.53c100-12.32,177.49-97.59,177.49-201s-77.45-188.64-177.49-201a204.27,204.27,0,0,1,25-1.53C1094.42,321.1,1185.08,411.76,1185.08,523.59Z" transform="translate(-687.11 -321.1)" style="opacity:0.15;fill:url(#h)"/><text transform="translate(122.88 160.63) rotate(12.07)" style="font-size:150px;fill:#6a72d8;font-family:Montserrat Black">S</text><text transform="translate(228.23 161.23)" style="font-size:48px;fill:#939292;font-family:Montserrat Black">tria<tspan x="90.29" y="0">n</tspan><tspan x="124.46" y="0">ese</tspan></text><text transform="translate(445.23 161.23)" style="font-size:15px;fill:#6a72d8;font-family:Montserrat Black">srl</text><use width="78" height="67.81" transform="translate(125.11 210) rotate(19.32) scale(0.81)" xlink:href="#i"/></svg>