<svg xmlns="http://www.w3.org/2000/svg" viewBox="0 0 143.63 182.71"><title>S</title><text y="27.9"/><path d="M26.78,144.35Q10.1,137.81,0,129.32L21,95.61a102.18,102.18,0,0,0,22,13.08,92.45,92.45,0,0,0,24.37,7.22q10.25,1.46,14.93.11t5.24-5.33q0.66-4.6-4.77-7.73T64.64,95.22A216.51,216.51,0,0,1,37.49,83.55a48.59,48.59,0,0,1-17.75-16.2q-7-10.5-4.77-26.4A43.86,43.86,0,0,1,26.3,17Q35.65,6.76,52,2.47T90.23,1.33A137,137,0,0,1,119.36,8.8,93.77,93.77,0,0,1,143.63,22l-20,33.65q-20-14-39.24-16.71-19-2.72-20.35,6.48-0.63,4.39,4.71,7.4t17.95,7.37a193.49,193.49,0,0,1,27.21,11.25A49.66,49.66,0,0,1,132,87.56q7.16,10.42,4.88,26.31a43.39,43.39,0,0,1-11.31,23.89q-9.34,10.09-25.66,14.48T61.65,153.5A155.18,155.18,0,0,1,26.78,144.35Z" transform="translate(0 27.9)" style="fill:#1371e2"/></svg>